<svg xmlns="http://www.w3.org/2000/svg" viewBox="0 0 208.19 65.68"><defs><style>.cls-1{fill:#1d1719;}.cls-2{font-size:34.88px;font-family:GoogleSans-Bold, Google Sans;font-weight:700;}.cls-2,.cls-8{fill:#231f20;}.cls-3{letter-spacing:-0.03em;}.cls-4{letter-spacing:0em;}.cls-5{letter-spacing:0em;}.cls-6{letter-spacing:0em;}.cls-7{letter-spacing:-0.01em;}.cls-8{font-size:10.77px;font-family:GoogleSans-Regular, Google Sans;letter-spacing:0.05em;}.cls-9{letter-spacing:0.07em;}.cls-10{letter-spacing:0.06em;}.cls-11{letter-spacing:0.06em;}.cls-12{letter-spacing:0.07em;}.cls-13{letter-spacing:0.07em;}.cls-14{letter-spacing:0.06em;}.cls-15{letter-spacing:0.06em;}.cls-16{letter-spacing:0.05em;}.cls-17{letter-spacing:0.06em;}.cls-18{letter-spacing:0.07em;}.cls-19{letter-spacing:0.06em;}.cls-20{letter-spacing:0.06em;}</style></defs><title>logo</title><g id="Layer_2" data-name="Layer 2"><g id="Layer_1-2" data-name="Layer 1"><path class="cls-1" d="M8.1,59.87l-7,4.68A.69.69,0,0,1,0,64V12.41a.69.69,0,0,1,.31-.57l7-4.68a.69.69,0,0,1,1.07.57V59.29A.7.7,0,0,1,8.1,59.87ZM41.25,37.05l-6.32-4.22a.68.68,0,0,0-.77,0l-13.39,9a.69.69,0,0,1-1.07-.57V.69A.69.69,0,0,0,18.63.12l-7,4.68a.68.68,0,0,0-.3.57V56.94a.69.69,0,0,0,1.07.57l7.33-4.89v0L41.25,38.2A.69.69,0,0,0,41.25,37.05Zm13.66-4.47L35.11,19.35a.7.7,0,0,0-.76,0L28,23.6a.69.69,0,0,0,0,1.15L46.45,37.09a.69.69,0,0,1,0,1.15L20,55.91a.67.67,0,0,0-.31.57V65a.69.69,0,0,0,1.07.57L54.91,42.74l6.74-4.5a.69.69,0,0,0,0-1.15Z"/><text class="cls-2" transform="translate(66.82 43.14)"><tspan class="cls-3">L</tspan><tspan class="cls-4" x="18.03" y="0">O</tspan><tspan class="cls-5" x="47.21" y="0">B</tspan><tspan class="cls-6" x="69.86" y="0">E</tspan><tspan class="cls-7" x="90.64" y="0">A</tspan><tspan x="115.47" y="0">N</tspan></text><text class="cls-8" transform="translate(82.25 59.66)">e<tspan class="cls-9" x="6.55" y="0">xpe</tspan><tspan class="cls-10" x="26.42" y="0">r</tspan><tspan class="cls-11" x="31.06" y="0">i</tspan><tspan class="cls-12" x="34.15" y="0">e</tspan><tspan class="cls-13" x="40.91" y="0">n</tspan><tspan class="cls-14" x="47.67" y="0">c</tspan><tspan class="cls-15" x="54.17" y="0">e </tspan><tspan class="cls-16" x="64.03" y="0">r</tspan><tspan class="cls-17" x="68.64" y="0">e</tspan><tspan class="cls-18" x="75.41" y="0">d</tspan><tspan class="cls-19" x="82.6" y="0">e</tspan><tspan class="cls-20" x="89.36" y="0">s</tspan><tspan class="cls-11" x="95.08" y="0">i</tspan><tspan class="cls-19" x="98.16" y="0">g</tspan><tspan class="cls-13" x="105.29" y="0">n</tspan><tspan class="cls-17" x="112.05" y="0">e</tspan><tspan class="cls-15" x="118.81" y="0">d</tspan></text></g></g></svg>